# xmcd
# Track frame offsets:
# 150
# 13079
# 23548
# 34931
# 48099
# 60280
# 72157
# 85474
# 95784
# 108464
# 122142
# 132428
#
# Disc length: 1906 seconds
# Revision: 0
# Processed by: cddbd v1.5.2PL0 Copyright (c) Steve Scherf et al.
# Submitted via: VisiTrax 2.11.0.264 - For more info visit www.synapsa.com
#
DISCID=9d07700c
DTITLE=Various Artist - by the original artists - Vintage Country Music
DYEAR=2003
DGENRE=
TTITLE0=Glen Campbell - Rhinestone Cowboy
TTITLE1=Billie Jo Spears - I'm So Lonesome I Could Cry
TTITLE2=Bobby Bare - That's How I Got To Memphis
TTITLE3=Hank Thompson - The Wild Side of Life
TTITLE4=Willie Nelson - Shelter Of Your Arms
TTITLE5=Jim Reeves - Mexican Joe
TTITLE6=Roy Clark - Come Live With Me
TTITLE7=Tommy Overstreet - Ann (Don't Go Runnin')
TTITLE8=Lynn Anderson - Rose Garden
TTITLE9=Dave Dudley - The Waterin' Hole
TTITLE10=Faron Young - If You Ain't Lovin' (You Ain't Livin')
TTITLE11=Billy Walker - Charlie's Shoes
EXTD=
EXTT0=
EXTT1=
EXTT2=
EXTT3=
EXTT4=
EXTT5=
EXTT6=
EXTT7=
EXTT8=
EXTT9=
EXTT10=
EXTT11=
PLAYORDER=
